<?xml version="1.0" standalone="no"?>
<!DOCTYPE svg PUBLIC "-//W3C//DTD SVG 20010904//EN"
 "http://www.w3.org/TR/2001/REC-SVG-20010904/DTD/svg10.dtd">
<svg version="1.0" xmlns="http://www.w3.org/2000/svg"
 width="3840.000000pt" height="2160.000000pt" viewBox="0 0 3840.000000 2160.000000"
 preserveAspectRatio="xMidYMid meet">

<g transform="translate(0.000000,2160.000000) scale(0.100000,-0.100000)"
fill="#000000" stroke="none">
<path d="M0 20356 l0 -1244 73 -74 c247 -251 579 -447 1427 -838 767 -354
1113 -555 1368 -795 157 -148 275 -338 308 -497 19 -88 15 -263 -9 -413 -47
-297 -61 -674 -54 -1530 3 -396 11 -844 16 -995 27 -707 45 -1124 91 -2150
100 -2239 122 -3009 101 -3581 -18 -476 -34 -592 -103 -732 -191 -384 -751
-449 -1618 -187 -414 124 -898 325 -1379 571 -117 60 -215 109 -217 109 -2 0
-4 -1800 -4 -4000 l0 -4000 5228 0 5227 0 1 678 c0 655 8 939 40 1542 198
3756 1020 8607 2180 12870 687 2520 1462 4712 2239 6326 47 98 85 179 85 181
0 1 -922 3 -2049 3 l-2049 0 -36 -152 c-20 -84 -99 -398 -176 -698 -677 -2656
-1251 -4475 -1565 -4961 -28 -43 -87 -112 -142 -163 -143 -136 -270 -337 -399
-631 -379 -866 -652 -2085 -736 -3285 -18 -266 -16 -903 5 -1162 40 -488 11
-814 -78 -898 -155 -146 -501 405 -720 1145 -182 619 -232 1157 -150 1634 45
261 56 419 62 861 8 593 -6 909 -107 2405 -126 1874 -138 2441 -59 2987 44
312 118 468 499 1063 198 309 253 401 326 548 177 352 244 654 230 1037 -3 96
-9 196 -12 223 l-7 47 -3918 0 -3919 0 0 -1244z"/>
<path d="M24575 21463 c-281 -815 -794 -1397 -1575 -1788 -494 -247 -1083
-419 -1901 -554 -326 -54 -640 -96 -1409 -186 -1004 -118 -1390 -174 -1855
-267 -1142 -229 -1945 -600 -2528 -1167 -580 -564 -929 -1291 -1102 -2293
-228 -1325 -313 -2874 -235 -4303 155 -2818 865 -5384 1938 -7004 488 -737
1057 -1263 1632 -1509 273 -117 499 -171 755 -179 188 -6 315 7 504 53 991
242 2245 1245 3860 3089 602 687 1092 1284 2096 2555 672 850 892 1125 1181
1470 527 631 872 961 1061 1016 51 15 60 14 154 -6 623 -133 1156 -578 1498
-1250 258 -505 403 -1079 473 -1870 17 -195 18 -1014 0 -1210 -86 -978 -264
-1956 -578 -3180 -222 -865 -547 -1944 -814 -2695 -33 -94 -60 -173 -60 -178
0 -4 979 -6 2177 -5 l2176 3 29 110 c71 273 184 609 268 798 70 157 128 255
187 315 70 70 88 70 191 -8 221 -166 391 -414 680 -987 l117 -233 1913 0 1912
0 -61 73 c-148 175 -352 515 -564 939 -169 340 -180 370 -180 513 1 130 15
178 119 401 87 187 115 277 127 404 12 124 25 147 82 136 135 -25 497 -372
842 -806 221 -278 250 -313 287 -337 46 -31 81 -25 103 17 8 16 24 85 35 152
54 334 88 473 133 539 30 46 75 51 123 14 l34 -26 0 2501 0 2500 -93 108
c-555 643 -1043 1656 -1451 3013 -591 1965 -1023 4664 -1246 7789 -79 1113
-140 2579 -140 3398 l0 272 -1689 0 -1689 0 -6 -62 c-26 -260 -33 -1026 -16
-1538 44 -1286 152 -2436 465 -4940 176 -1412 205 -1686 206 -1959 0 -146 -9
-211 -29 -211 -15 0 -48 43 -159 210 -193 291 -369 572 -691 1109 -529 883
-656 1074 -909 1376 -119 142 -359 379 -493 487 -634 510 -1570 889 -3092
1252 -87 20 -40 230 307 1376 330 1091 482 1662 584 2206 35 186 77 480 87
607 l7 87 -1865 0 -1865 0 -48 -137z m-5096 -8652 c242 -98 767 -142 1321
-111 91 5 233 12 316 16 l151 7 40 -41 c142 -146 245 -568 204 -831 -32 -205
-263 -668 -532 -1066 -320 -474 -638 -793 -934 -935 -259 -125 -475 -111 -684
43 -416 307 -738 959 -876 1771 -36 211 -55 416 -55 584 0 148 0 150 32 213
48 94 170 213 273 266 167 86 303 114 530 109 136 -3 168 -7 214 -25z"/>
<path d="M28821 21483 c-63 -341 -175 -771 -380 -1458 -273 -921 -341 -1210
-341 -1458 0 -149 32 -258 92 -314 52 -49 104 -63 240 -63 203 0 334 -37 603
-170 335 -165 601 -340 1405 -925 756 -550 956 -678 1148 -731 76 -21 122 -13
156 26 51 61 65 201 73 715 10 712 -30 1839 -127 3530 -28 482 -49 817 -56
898 l-6 67 -1393 0 -1392 0 -22 -117z"/>
<path d="M36854 20675 c-45 -45 -73 -129 -129 -384 -437 -1999 -202 -4647 669
-7543 266 -882 623 -1870 940 -2603 l65 -150 1 4095 0 4095 -88 28 c-131 41
-211 93 -337 221 -166 167 -300 377 -440 691 -98 219 -166 405 -327 890 -158
476 -213 612 -267 658 -40 33 -55 34 -87 2z"/>
<path d="M0 13983 l0 -3168 141 -165 c390 -456 760 -830 1063 -1074 298 -239
556 -359 702 -327 142 32 199 134 244 442 53 360 49 677 -19 1489 -62 732 -66
797 -66 1235 0 420 7 542 47 870 51 416 -13 801 -219 1325 -320 816 -1011
1827 -1603 2348 -88 77 -254 192 -277 192 -11 0 -13 -545 -13 -3167z"/>
<path d="M12753 10918 c-252 -275 -827 -3361 -1022 -5493 -55 -593 -75 -1016
-68 -1415 6 -337 11 -391 68 -695 68 -367 115 -736 139 -1110 5 -88 17 -404
25 -701 18 -679 33 -863 91 -1122 25 -110 89 -314 113 -360 l12 -22 2146 0
2146 0 101 72 c123 88 269 230 325 317 47 73 81 173 81 235 0 62 -25 137 -67
198 -20 29 -120 161 -221 293 -625 812 -1103 1496 -1564 2235 -1209 1941
-1931 3741 -2138 5330 -48 369 -55 501 -50 950 8 864 5 1118 -13 1199 -24 107
-59 137 -104 89z"/>
<path d="M26568 7858 c-338 -31 -728 -340 -1165 -923 -344 -460 -626 -920
-1388 -2270 -812 -1438 -1145 -1977 -1610 -2605 -67 -91 -128 -175 -134 -188
-18 -34 -4 -78 37 -124 75 -83 192 -149 632 -353 776 -361 1131 -580 1435
-889 134 -136 229 -263 305 -409 l51 -97 901 0 901 0 -7 98 c-31 479 -40 1284
-18 1627 48 729 139 1262 302 1755 78 236 141 384 275 645 130 253 195 404
265 612 147 442 217 871 227 1393 8 417 -18 712 -87 997 -55 229 -108 332
-231 449 -231 220 -439 305 -691 282z"/>
</g>
</svg>
